<svg width="11" height="18" viewBox="0 0 11 18" fill="none" xmlns="http://www.w3.org/2000/svg">
<path d="M9.91042 17.6224C10.0301 17.503 10.1251 17.3611 10.1899 17.2049C10.2547 17.0488 10.2881 16.8813 10.2881 16.7123C10.2881 16.5432 10.2547 16.3758 10.1899 16.2196C10.1251 16.0634 10.0301 15.9216 9.91042 15.8022L3.10533 8.99966L9.91042 2.19715C10.0299 2.07763 10.1247 1.93575 10.1894 1.77959C10.2541 1.62344 10.2874 1.45608 10.2874 1.28706C10.2874 1.11804 10.2541 0.950675 10.1894 0.794522C10.1247 0.638369 10.0299 0.496485 9.91042 0.376971C9.79091 0.257456 9.64902 0.162652 9.49287 0.0979715C9.33672 0.0332908 9.16935 -1.25929e-09 9.00034 0C8.83132 1.25929e-09 8.66395 0.0332908 8.5078 0.0979715C8.35165 0.162652 8.20976 0.257456 8.09025 0.376971L0.377644 8.08958C0.257936 8.20898 0.16296 8.35083 0.0981579 8.507C0.0333554 8.66317 0 8.83058 0 8.99966C0 9.16874 0.0333554 9.33616 0.0981579 9.49233C0.16296 9.64849 0.257936 9.79035 0.377644 9.90975L8.09025 17.6224C8.20965 17.7421 8.3515 17.837 8.50767 17.9018C8.66384 17.9666 8.83126 18 9.00034 18C9.16941 18 9.33683 17.9666 9.493 17.9018C9.64917 17.837 9.79102 17.7421 9.91042 17.6224Z" fill="white" fill-opacity="0.7"/>
</svg>
