<svg width="16" height="15" viewBox="0 0 16 15" fill="none" xmlns="http://www.w3.org/2000/svg">
<path d="M15.7239 13.5706L12.8049 10.7465C13.7467 9.58229 14.2577 8.14459 14.2558 6.66452C14.2558 5.3464 13.853 4.05789 13.0984 2.96191C12.3437 1.86594 11.271 1.01173 10.016 0.507309C8.76103 0.00288767 7.38007 -0.129092 6.04778 0.12806C4.71549 0.385212 3.4917 1.01995 2.53117 1.952C1.57064 2.88404 0.916513 4.07155 0.651504 5.36434C0.386495 6.65713 0.522507 7.99714 1.04234 9.21492C1.56218 10.4327 2.44248 11.4736 3.57195 12.2059C4.70141 12.9382 6.0293 13.329 7.38769 13.329C8.91298 13.3309 10.3946 12.835 11.5944 11.9212L14.5048 14.7536C14.5846 14.8317 14.6796 14.8936 14.7842 14.9359C14.8888 14.9782 15.001 15 15.1144 15C15.2277 15 15.3399 14.9782 15.4445 14.9359C15.5492 14.8936 15.6441 14.8317 15.7239 14.7536C15.8044 14.6761 15.8683 14.584 15.9118 14.4825C15.9554 14.381 15.9779 14.2721 15.9779 14.1621C15.9779 14.0521 15.9554 13.9432 15.9118 13.8417C15.8683 13.7402 15.8044 13.6481 15.7239 13.5706ZM2.23657 6.66452C2.23657 5.67593 2.53868 4.70955 3.10469 3.88757C3.67071 3.06558 4.4752 2.42493 5.41644 2.04661C6.35769 1.6683 7.3934 1.56931 8.39262 1.76218C9.39184 1.95504 10.3097 2.43109 11.0301 3.13013C11.7505 3.82916 12.2411 4.71979 12.4398 5.68938C12.6386 6.65898 12.5366 7.66399 12.1467 8.57732C11.7568 9.49066 11.0966 10.2713 10.2495 10.8205C9.4024 11.3698 8.40649 11.6629 7.38769 11.6629C6.02153 11.6629 4.71132 11.1363 3.7453 10.1989C2.77928 9.26154 2.23657 7.99018 2.23657 6.66452Z" fill="white"/>
</svg>
