<svg width="35" height="35" viewBox="0 0 35 35" fill="none" xmlns="http://www.w3.org/2000/svg">
<path d="M26.0471 12.905C25.6111 12.3479 24.9329 12.0088 24.2305 12.0088H9.47948L9.01927 10.2164C8.75283 9.17489 7.8324 8.44824 6.76665 8.44824H4.29604C3.88427 8.44824 3.54517 8.78735 3.54517 9.19911C3.54517 9.61088 3.88427 9.94999 4.29604 9.94999H6.76665C7.12997 9.94999 7.44486 10.1922 7.54174 10.5555L10.4968 22.3273C10.7632 23.3688 11.6836 24.0954 12.7494 24.0954H22.4139C23.4796 24.0954 24.4243 23.3688 24.6665 22.3273L26.4831 14.867C26.6526 14.1888 26.5073 13.4621 26.0471 12.905ZM25.0056 14.5279L23.1889 21.9882C23.0921 22.3515 22.7772 22.5937 22.4139 22.5937H12.7494C12.3861 22.5937 12.0712 22.3515 11.9743 21.9882L9.86702 13.5348H24.2305C24.4727 13.5348 24.7149 13.6559 24.8602 13.8497C25.0056 14.0434 25.0782 14.2857 25.0056 14.5279Z" fill="white" stroke="white" stroke-width="0.4"/>
<path d="M13.2588 25.0643C11.8782 25.0643 10.7397 26.2028 10.7397 27.5834C10.7397 28.964 11.8782 30.1024 13.2588 30.1024C14.6394 30.1024 15.7779 28.964 15.7779 27.5834C15.7779 26.2028 14.6394 25.0643 13.2588 25.0643ZM13.2588 28.5765C12.7017 28.5765 12.2657 28.1405 12.2657 27.5834C12.2657 27.0263 12.7017 26.5903 13.2588 26.5903C13.8159 26.5903 14.2519 27.0263 14.2519 27.5834C14.2519 28.1163 13.7917 28.5765 13.2588 28.5765Z" fill="white" stroke="white" stroke-width="0.4"/>
<path d="M21.5903 25.0643C20.2097 25.0643 19.0713 26.2028 19.0713 27.5834C19.0713 28.964 20.2097 30.1024 21.5903 30.1024C22.971 30.1024 24.1094 28.964 24.1094 27.5834C24.0852 26.2028 22.971 25.0643 21.5903 25.0643ZM21.5903 28.5765C21.0332 28.5765 20.5973 28.1405 20.5973 27.5834C20.5973 27.0263 21.0332 26.5903 21.5903 26.5903C22.1474 26.5903 22.5834 27.0263 22.5834 27.5834C22.5834 28.1163 22.1232 28.5765 21.5903 28.5765Z" fill="white" stroke="white" stroke-width="0.4"/>
<path d="M28.7246 5.82722C28.7246 8.03637 26.9338 9.82715 24.7245 9.82715C22.5154 9.82715 20.7246 8.03637 20.7246 5.82722C20.7246 3.61808 22.5154 1.82715 24.7245 1.82715C26.9338 1.82715 28.7246 3.61808 28.7246 5.82722Z" fill="#F2C94C"/>
</svg>
