<svg width="27" height="22" viewBox="0 0 27 22" fill="none" xmlns="http://www.w3.org/2000/svg">
<path d="M2.6167 12.3186C2.6167 11.8327 3.01065 11.4387 3.49662 11.4387H12.2958C12.7818 11.4387 13.1757 11.8327 13.1757 12.3186C13.1757 12.8046 12.7818 13.1986 12.2958 13.1986H3.49662C3.01065 13.1986 2.6167 12.8046 2.6167 12.3186Z" fill="white"/>
<path d="M0.856934 7.91922C0.856934 7.43326 1.25089 7.03931 1.73685 7.03931H8.77619C9.26215 7.03931 9.6561 7.43326 9.6561 7.91922C9.6561 8.40519 9.26215 8.79914 8.77619 8.79914H1.73685C1.25089 8.79914 0.856934 8.40519 0.856934 7.91922Z" fill="white"/>
<path d="M25.4242 11.9723L22.7845 5.81287C22.7167 5.65456 22.604 5.51963 22.4602 5.42483C22.3165 5.33003 22.148 5.27955 21.9758 5.27964H19.3361V3.51981C19.3361 3.28644 19.2434 3.06263 19.0783 2.89761C18.9133 2.7326 18.6895 2.63989 18.4562 2.63989H5.25739C4.77143 2.63989 4.37748 3.03384 4.37748 3.51981C4.37748 4.00577 4.77143 4.39973 5.25739 4.39973H17.5762V15.448C17.1753 15.6808 16.8244 15.9907 16.5438 16.3598C16.2632 16.7289 16.0584 17.1499 15.9413 17.5985H10.4119C10.1978 16.769 9.68845 16.0461 8.97944 15.5653C8.27042 15.0845 7.41039 14.8788 6.56055 14.9868C5.71071 15.0947 4.92942 15.5089 4.36311 16.1517C3.79681 16.7945 3.48438 17.6217 3.48438 18.4784C3.48437 19.3351 3.79681 20.1623 4.36311 20.8051C4.92942 21.4479 5.71071 21.8621 6.56055 21.97C7.41039 22.078 8.27042 21.8723 8.97944 21.3915C9.68845 20.9107 10.1978 20.1878 10.4119 19.3583H15.9413C16.1328 20.1135 16.5705 20.7833 17.1854 21.2617C17.8002 21.7402 18.557 21.9999 19.3361 21.9999C20.1151 21.9999 20.8719 21.7402 21.4868 21.2617C22.1016 20.7833 22.5394 20.1135 22.7308 19.3583H24.6156C24.8489 19.3583 25.0728 19.2656 25.2378 19.1006C25.4028 18.9356 25.4955 18.7118 25.4955 18.4784V12.319C25.4955 12.1998 25.4713 12.0818 25.4242 11.9723ZM7.01723 20.2382C6.66916 20.2382 6.32892 20.135 6.03952 19.9416C5.75011 19.7483 5.52455 19.4734 5.39135 19.1519C5.25815 18.8303 5.2233 18.4764 5.29121 18.1351C5.35911 17.7937 5.52672 17.4801 5.77284 17.234C6.01895 16.9879 6.33253 16.8203 6.6739 16.7524C7.01528 16.6845 7.36912 16.7193 7.69069 16.8525C8.01225 16.9857 8.2871 17.2113 8.48048 17.5007C8.67385 17.7901 8.77706 18.1303 8.77706 18.4784C8.7766 18.945 8.59104 19.3923 8.2611 19.7223C7.93117 20.0522 7.48382 20.2378 7.01723 20.2382ZM19.3361 7.03948H21.3951L23.2816 11.4391H19.3361V7.03948ZM19.3361 20.2382C18.988 20.2382 18.6478 20.135 18.3584 19.9416C18.069 19.7483 17.8434 19.4734 17.7102 19.1519C17.577 18.8303 17.5421 18.4764 17.61 18.1351C17.678 17.7937 17.8456 17.4801 18.0917 17.234C18.3378 16.9879 18.6514 16.8203 18.9927 16.7524C19.3341 16.6845 19.688 16.7193 20.0095 16.8525C20.3311 16.9857 20.6059 17.2113 20.7993 17.5007C20.9927 17.7901 21.0959 18.1303 21.0959 18.4784C21.0954 18.945 20.9099 19.3923 20.5799 19.7223C20.25 20.0522 19.8027 20.2378 19.3361 20.2382ZM23.7357 17.5985H22.7308C22.537 16.8448 22.0985 16.1767 21.4842 15.699C20.8698 15.2212 20.1143 14.9609 19.3361 14.9587V13.1989H23.7357V17.5985Z" fill="white"/>
<path d="M26.3748 3.51973C26.3748 5.4636 24.799 7.03934 22.8551 7.03934C20.9112 7.03934 19.3354 5.4636 19.3354 3.51973C19.3354 1.57587 20.9112 0 22.8551 0C24.799 0 26.3748 1.57587 26.3748 3.51973Z" fill="#F2C94C"/>
</svg>
